<svg width="17" height="17" viewBox="0 0 17 17" fill="none" xmlns="http://www.w3.org/2000/svg">
<path d="M8.5 8.5C7.50544 8.5 6.55161 8.10491 5.84835 7.40165C5.14509 6.69839 4.75 5.74456 4.75 4.75C4.75 3.75544 5.14509 2.80161 5.84835 2.09835C6.55161 1.39509 7.50544 1 8.5 1C9.49456 1 10.4484 1.39509 11.1517 2.09835C11.8549 2.80161 12.25 3.75544 12.25 4.75C12.25 5.74456 11.8549 6.69839 11.1517 7.40165C10.4484 8.10491 9.49456 8.5 8.5 8.5Z" stroke="black" stroke-width="2" stroke-linecap="round"/>
<path d="M1 16V15.1667C1 13.8406 1.59263 12.5688 2.64752 11.6312C3.70242 10.6935 5.13316 10.1667 6.625 10.1667H10.375C11.8668 10.1667 13.2976 10.6935 14.3525 11.6312C15.4074 12.5688 16 13.8406 16 15.1667V16" stroke="black" stroke-width="2" stroke-linecap="round"/>
</svg>
