<svg width="40" height="28" viewBox="0 0 40 28" fill="none" xmlns="http://www.w3.org/2000/svg">
<path d="M36.9334 27.0046C35.0618 27.0046 33.9518 26.0526 33.8668 24.6814H35.6564C35.6564 25.1384 35.9112 25.7469 37.0183 25.7847C37.7857 25.7847 38.2104 25.3277 38.2104 24.9841C38.1255 24.4514 37.443 24.4135 36.7635 24.2971C35.9962 24.1864 35.4016 24.0321 34.974 23.8429C34.3794 23.5372 34.0367 22.888 34.0367 22.2038C34.0367 20.984 35.0618 20.032 36.8485 20.032C38.5531 20.032 39.6602 20.9083 39.7423 22.2417H38.0405C38.0405 21.9011 37.9556 21.3275 36.9334 21.3275C36.251 21.3275 35.8263 21.4411 35.7413 21.936C35.7413 22.6231 37.1882 22.5852 38.2954 22.8501C39.3176 23.118 40 23.7643 40 24.6814C40 26.3583 38.638 27.0046 36.9334 27.0046Z" fill="black"/>
<path d="M4.36279 15.652L10.1926 12.233L13.3196 17.6506H5.46133" fill="black"/>
<path fill-rule="evenodd" clip-rule="evenodd" d="M0 23.5236C0 25.4654 1.61196 27.0288 3.47797 27.0288C4.24307 27.0288 5.00816 26.8367 5.51628 26.4553V26.8745H7.21584L7.21584 20.132H5.51628V20.6647C4.92348 20.2484 4.24307 20.0563 3.47797 20.0563C1.61196 20.0563 0 21.5818 0 23.5236ZM3.56266 25.4655C2.54643 25.4655 1.61196 24.5892 1.61196 23.5236C1.61196 22.4959 2.54643 21.5818 3.56266 21.5818C4.66942 21.5818 5.51628 22.4959 5.51628 23.5236C5.51628 24.5892 4.66942 25.4655 3.56266 25.4655Z" fill="black"/>
<path d="M26.2209 17.6497L18.03 3.43884L23.9171 -1.14441e-05L34.1564 17.6497" fill="black"/>
<path fill-rule="evenodd" clip-rule="evenodd" d="M7.83337 23.5101C7.83337 25.4592 9.36065 27.0284 11.3143 27.0284C12.0764 27.0284 12.7569 26.8356 13.3526 26.4528V26.8736H15.0492V17.7738H13.3526V20.6405C12.7569 20.2226 12.0764 20.0297 11.3143 20.0297C9.36065 20.0297 7.83337 21.561 7.83337 23.5101ZM11.3989 25.4592C10.2951 25.4592 9.44532 24.5796 9.44532 23.5101C9.44532 22.4786 10.2951 21.561 11.3989 21.561C12.4152 21.561 13.3526 22.4786 13.3526 23.5101C13.3526 24.5796 12.4152 25.4592 11.3989 25.4592Z" fill="black"/>
<path d="M11.2275 9.62595L17.1879 6.25917L23.7458 17.7021H17.5277V19.387H15.826V17.7021" fill="black"/>
<path fill-rule="evenodd" clip-rule="evenodd" d="M38.0491 18.6066C38.0491 19.0654 38.4725 19.4482 38.8988 19.4482C39.4069 19.4482 39.7486 19.0654 39.7486 18.6066C39.7486 18.1479 39.4069 17.765 38.8988 17.765C38.4725 17.765 38.0491 18.1479 38.0491 18.6066ZM38.2184 18.6066C38.2184 18.2238 38.4725 17.8819 38.8988 17.8819C39.3222 17.8819 39.5763 18.2238 39.5763 18.6066C39.5763 18.9894 39.3222 19.3343 38.8988 19.3343C38.4725 19.3343 38.2184 18.9894 38.2184 18.6066Z" fill="black"/>
<path fill-rule="evenodd" clip-rule="evenodd" d="M38.9047 18.6855L39.074 19.0684H39.2434L39.074 18.6855C39.1587 18.6476 39.2434 18.5716 39.2434 18.4196C39.2434 18.2677 39.074 18.1508 38.9893 18.1508H38.6068V19.0684H38.7353V18.6855H38.9047ZM38.7353 18.2677H38.9047C39.074 18.2677 39.074 18.3407 39.074 18.4196C39.074 18.5336 39.074 18.5716 38.9047 18.5716H38.7353V18.2677Z" fill="black"/>
<path fill-rule="evenodd" clip-rule="evenodd" d="M26.0736 23.5101C26.0736 25.4592 27.6008 27.0284 29.5515 27.0284C30.3165 27.0284 30.9969 26.8356 31.5897 26.4528V26.8736H33.2045V20.1057H31.5897V20.6405C30.9969 20.2226 30.3165 20.0297 29.5515 20.0297C27.6008 20.0297 26.0736 21.561 26.0736 23.5101ZM29.6391 25.4592C28.5353 25.4592 27.6855 24.5796 27.6855 23.5101C27.6855 22.4786 28.5353 21.561 29.6391 21.561C30.6582 21.561 31.5897 22.4786 31.5897 23.5101C31.5897 24.5796 30.6582 25.4592 29.6391 25.4592Z" fill="black"/>
<path fill-rule="evenodd" clip-rule="evenodd" d="M25.4838 17.7738H23.7872V20.6405C23.2762 20.2226 22.5958 20.0297 21.8336 20.0297C19.8801 20.0297 18.2682 21.561 18.2682 23.5101C18.2682 25.4592 19.8801 27.0284 21.8336 27.0284C22.5958 27.0284 23.2762 26.8356 23.7872 26.4528V26.8736H25.4838V17.7738ZM21.8337 25.4592C20.8145 25.4592 19.8801 24.5796 19.8801 23.5101C19.8801 22.4786 20.8145 21.561 21.8337 21.561C22.9375 21.561 23.7872 22.4786 23.7872 23.5101C23.7872 24.5796 22.9375 25.4592 21.8337 25.4592Z" fill="black"/>
<rect width="0.6" height="5.5" transform="matrix(-1 0 0 1 17 21)" fill="black" stroke="black"/>
</svg>
