<svg width="320" height="373" viewBox="0 0 320 373" fill="none" xmlns="http://www.w3.org/2000/svg">
<rect width="320" height="373" fill="#979797"/>
<path d="M65.9336 104.361H57.4082V105.381C60.0625 105.609 60.3086 105.768 60.3086 108.475V113.801H48.6719V108.475C48.6719 105.768 48.9531 105.609 51.5371 105.381V104.361H43.0117V105.381C45.8242 105.609 46.123 105.732 46.123 108.475V121.922C46.123 124.664 45.8242 124.752 43.082 124.963V126H51.7305V124.963C48.9531 124.752 48.6719 124.594 48.6719 121.922V115.33H60.3086V121.922C60.3086 124.629 60.0273 124.752 57.127 124.963V126H65.9336V124.963C63.1914 124.752 62.8574 124.664 62.8574 121.922V108.475C62.8574 105.732 63.1914 105.609 65.9336 105.381V104.361ZM78.9941 122.502C77.7461 123.609 76.5332 124.207 75.1445 124.207C72.8594 124.207 70.1699 122.309 70.1523 117.773C74.2305 117.65 78.502 117.316 79.0293 117.246C79.6094 117.088 79.7324 116.859 79.7324 116.104C79.7324 113.432 77.5176 110.988 74.7402 110.988H74.7051C73.0527 110.988 71.2598 111.902 69.9238 113.396C68.5527 114.908 67.7617 117 67.7617 119.285C67.7617 123.064 70.1699 126.387 74.1602 126.387C75.1973 126.387 77.4297 125.842 79.5742 123.328L78.9941 122.502ZM74.002 112.289C75.8477 112.289 77.0605 113.801 77.0605 115.559C77.0605 116.051 76.8672 116.244 76.2168 116.279C74.1602 116.332 72.2266 116.367 70.2754 116.332C70.8906 113.695 72.4023 112.289 73.9668 112.289H74.002ZM86.6055 114.504V110.883C85.1113 111.568 83.6699 111.99 82.1406 112.254V113.115C84.127 113.344 84.2676 113.432 84.2676 115.682V122.467C84.2676 124.664 84.0391 124.893 81.8418 125.051V126H89.3828V125.051C86.7461 124.893 86.6055 124.664 86.6055 122.449V116.543C87.3262 114.539 88.5391 113.396 89.4883 113.396C89.998 113.396 90.4023 113.572 90.8594 114.082C91.0879 114.258 91.334 114.275 91.7383 114.152C92.3887 113.818 92.7051 113.203 92.7051 112.623C92.7051 111.832 91.9668 110.988 90.7891 110.988C89.084 110.988 87.6777 112.852 86.6758 114.504H86.6055ZM101.16 110.988C98.2246 110.988 93.9531 113.432 93.9531 119.021C93.9531 122.73 96.6953 126.387 101.195 126.387C104.395 126.387 108.385 123.908 108.385 118.424C108.385 114.258 105.221 110.988 101.195 110.988H101.16ZM100.844 112.166C103.885 112.166 105.537 115.4 105.537 119.109C105.537 123.557 103.779 125.209 101.6 125.209C98.6816 125.209 96.8008 122.15 96.8008 117.967C96.8008 114.188 98.7168 112.166 100.844 112.166ZM127 126V124.963C124.258 124.787 123.941 124.664 123.941 121.781V108.545C123.941 105.732 124.258 105.609 127 105.381V104.361H118.352V105.381C121.129 105.609 121.428 105.732 121.428 108.545V121.781C121.428 124.629 121.129 124.787 118.352 124.963V126H127ZM154.369 126V125.051C152.418 124.893 152.154 124.734 152.154 122.467V116.086C152.154 112.816 150.414 110.988 147.9 110.988C146.898 110.988 146.02 111.375 145.334 111.797C144.508 112.359 143.541 112.975 142.521 113.801C141.801 111.99 140.395 110.988 138.83 110.988C137.688 110.988 136.914 111.34 136.158 111.832C135.051 112.482 134.295 113.133 133.609 113.66V110.883C132.273 111.568 130.604 111.99 129.145 112.254V113.115C131.166 113.396 131.271 113.502 131.271 115.682V122.467C131.271 124.664 130.938 124.893 128.688 125.051V126H135.578V125.051C133.908 124.893 133.609 124.664 133.609 122.467V114.803C134.629 113.994 136.053 112.904 137.529 112.904C139.656 112.904 140.535 114.346 140.535 116.859V122.467C140.535 124.664 140.166 124.893 138.021 125.051V126H145.141V125.051C143.207 124.893 142.891 124.664 142.891 122.537V116.209C142.891 115.559 142.855 115.189 142.785 114.803C144.086 113.73 145.422 112.904 146.758 112.904C149.025 112.904 149.764 114.574 149.764 116.859V122.379C149.764 124.699 149.377 124.893 147.355 125.051V126H154.369ZM169.662 124.752L169.293 123.82C168.977 123.979 168.484 124.207 168.098 124.207C167.465 124.207 166.92 123.68 166.92 122.186V115.875C166.92 114.188 166.551 112.852 165.443 111.902C164.758 111.287 163.721 110.988 162.771 110.988C160.82 111.375 158.693 112.676 157.867 113.309C157.252 113.766 156.76 114.152 156.76 114.645C156.76 115.418 157.621 116.051 158.131 116.051C158.623 116.051 158.992 115.822 159.08 115.33C159.414 114.311 159.678 113.66 160.1 113.168C160.416 112.781 160.979 112.482 161.699 112.482C163.387 112.482 164.635 113.854 164.635 116.314V116.789C163.914 117.316 161.471 118.266 159.449 118.951C157.551 119.531 156.672 120.709 156.672 122.273C156.672 124.471 158.324 126.387 160.592 126.387C161.752 126.387 163.299 125.191 164.688 124.277C164.828 124.822 165.021 125.314 165.514 125.807C165.812 126.105 166.516 126.387 166.955 126.387L169.662 124.752ZM164.635 123.1C163.984 123.68 162.613 124.436 161.699 124.436C160.592 124.436 159.221 123.592 159.221 121.922C159.221 120.674 159.959 120.023 161.33 119.443C162.086 119.109 163.879 118.336 164.635 117.967V123.1ZM185.148 111.305C183.812 111.533 182.248 111.709 180.648 111.797C179.699 111.287 178.557 110.988 177.52 110.988H177.484C174.971 110.988 171.543 112.746 171.543 116.543C171.543 118.846 173.02 120.357 174.355 120.938C173.828 121.623 172.791 122.537 171.543 122.994C171.508 123.293 171.613 123.873 171.877 124.33C172.299 125.016 173.178 125.807 174.32 126.123C173.564 126.721 172.229 127.828 171.613 128.479C171.086 129.006 170.822 129.727 170.822 130.412C170.857 132.363 172.949 134.525 176.605 134.525C180.982 134.525 184.832 131.361 184.832 128.021C184.832 124.752 182.178 124.049 180.068 124.049C178.926 124.049 177.713 124.066 176.377 124.066C174.9 124.066 174.355 123.486 174.355 122.836C174.355 122.379 174.936 121.729 175.428 121.359C176.008 121.465 176.641 121.535 177.133 121.535C180.033 121.535 182.969 119.76 182.969 116.174C182.969 114.996 182.617 113.889 181.984 113.168L183.848 113.309C184.375 113.045 185.096 112.166 185.377 111.604L185.148 111.305ZM177.133 112.025C179.014 112.025 180.42 113.801 180.42 116.473C180.42 119.021 179.014 120.393 177.484 120.41C175.621 120.41 174.197 118.617 174.197 116.051C174.197 113.502 175.586 112.025 177.098 112.025H177.133ZM178.012 126.193C179.436 126.193 180.42 126.299 181.264 126.686C182.178 127.072 182.705 127.951 182.705 129.041C182.705 131.133 181.018 132.75 177.748 132.75C175.305 132.75 173.336 131.52 173.336 129.691C173.336 128.707 173.986 127.723 174.971 126.984C175.621 126.422 176.377 126.193 177.977 126.193H178.012ZM197.822 122.502C196.574 123.609 195.361 124.207 193.973 124.207C191.688 124.207 188.998 122.309 188.98 117.773C193.059 117.65 197.33 117.316 197.857 117.246C198.438 117.088 198.561 116.859 198.561 116.104C198.561 113.432 196.346 110.988 193.568 110.988H193.533C191.881 110.988 190.088 111.902 188.752 113.396C187.381 114.908 186.59 117 186.59 119.285C186.59 123.064 188.998 126.387 192.988 126.387C194.025 126.387 196.258 125.842 198.402 123.328L197.822 122.502ZM192.83 112.289C194.676 112.289 195.889 113.801 195.889 115.559C195.889 116.051 195.695 116.244 195.045 116.279C192.988 116.332 191.055 116.367 189.104 116.332C189.719 113.695 191.23 112.289 192.795 112.289H192.83ZM235.668 126V124.963C232.732 124.734 232.592 124.559 232.504 120.867L232.205 109.248C232.064 105.627 232.328 105.662 235.299 105.381V104.361H229.691L221.816 121.236L214.188 104.361H208.861V105.381C211.938 105.662 212.025 105.732 211.744 109.969L211.287 116.895C211.059 120.41 210.83 121.816 210.654 122.924C210.408 124.436 209.74 124.734 207.824 124.928V126H215.682V124.928C213.502 124.734 212.658 124.506 212.553 122.924C212.518 121.693 212.553 120.357 212.711 117.475L213.168 107.859H213.238L220.709 125.736H221.395L229.656 107.367H229.727L229.885 120.867C229.885 124.559 229.814 124.734 227.037 124.963V126H235.668ZM250.592 124.752L250.223 123.82C249.906 123.979 249.414 124.207 249.027 124.207C248.395 124.207 247.85 123.68 247.85 122.186V115.875C247.85 114.188 247.48 112.852 246.373 111.902C245.688 111.287 244.65 110.988 243.701 110.988C241.75 111.375 239.623 112.676 238.797 113.309C238.182 113.766 237.689 114.152 237.689 114.645C237.689 115.418 238.551 116.051 239.061 116.051C239.553 116.051 239.922 115.822 240.01 115.33C240.344 114.311 240.607 113.66 241.029 113.168C241.346 112.781 241.908 112.482 242.629 112.482C244.316 112.482 245.564 113.854 245.564 116.314V116.789C244.844 117.316 242.4 118.266 240.379 118.951C238.48 119.531 237.602 120.709 237.602 122.273C237.602 124.471 239.254 126.387 241.521 126.387C242.682 126.387 244.229 125.191 245.617 124.277C245.758 124.822 245.951 125.314 246.443 125.807C246.742 126.105 247.445 126.387 247.885 126.387L250.592 124.752ZM245.564 123.1C244.914 123.68 243.543 124.436 242.629 124.436C241.521 124.436 240.15 123.592 240.15 121.922C240.15 120.674 240.889 120.023 242.26 119.443C243.016 119.109 244.809 118.336 245.564 117.967V123.1ZM261.631 115.137C261.49 114.223 261.174 112.324 260.84 111.568C260.154 111.287 259.275 110.988 257.904 110.988C254.881 110.988 252.912 112.939 252.912 115.225C252.912 117.773 254.934 118.793 257.148 119.795C258.695 120.551 259.803 121.324 259.803 122.801C259.803 124.277 258.555 125.244 257.324 125.244C255.303 125.244 253.896 123.416 253.334 121.166L252.297 121.324C252.297 122.502 252.613 124.752 252.877 125.244C253.404 125.736 254.969 126.387 256.709 126.387C259.346 126.387 262.176 124.822 262.176 121.816C262.176 119.531 260.418 118.336 257.939 117.316C256.498 116.771 255.109 116.016 255.109 114.451C255.109 113.08 255.988 112.061 257.324 112.061C258.924 112.061 260.031 113.344 260.646 115.4L261.631 115.137ZM280.475 126V125.051C279.104 124.98 278.189 124.365 277.047 123.223C275.904 122.115 272.441 118.266 271.791 117.316C273.285 115.559 273.883 114.908 274.727 114.117C276.027 112.904 276.818 112.482 279.104 112.096V111.146L272.283 111.516V112.447C273.848 112.623 273.883 112.904 273.215 113.818C272.564 114.732 271.598 116.051 270.877 116.789C270.314 117.281 269.77 117.686 268.68 117.914V102.305C267.572 102.691 265.744 103.289 264.057 103.518V104.396C266.166 104.52 266.377 104.713 266.377 106.998V122.467C266.377 124.559 266.148 124.893 263.863 125.051V126H271.193V125.051C268.979 124.893 268.68 124.664 268.68 122.467V118.828C268.908 118.723 269.137 118.688 269.312 118.688C269.594 118.688 269.893 118.846 270.35 119.408C272.336 121.623 274.393 124.172 276.168 126.035L280.475 126Z" fill="black"/>
</svg>
