<svg width="64" height="44" viewBox="0 0 64 44" fill="none" xmlns="http://www.w3.org/2000/svg">
<path d="M59.0934 43.2073C56.0989 43.2073 54.3228 41.6841 54.1869 39.4901H57.0502C57.0502 40.2214 57.4579 41.195 59.2293 41.2555C60.4571 41.2555 61.1367 40.5242 61.1367 39.9746C61.0008 39.1221 59.9088 39.0616 58.8216 38.8752C57.5938 38.6982 56.6425 38.4514 55.9583 38.1486C55.007 37.6595 54.4587 36.6207 54.4587 35.5261C54.4587 33.5743 56.0989 32.0511 58.9575 32.0511C61.6849 32.0511 63.4564 33.4532 63.5876 35.5866H60.8648C60.8648 35.0416 60.7289 34.124 59.0934 34.124C58.0015 34.124 57.322 34.3057 57.1861 35.0975C57.1861 36.1968 59.5011 36.1363 61.2726 36.5602C62.9081 36.9887 64 38.0228 64 39.4901C64 42.1732 61.8209 43.2073 59.0934 43.2073Z" fill="black"/>
<path d="M6.98059 25.043L16.3082 19.5727L21.3115 28.2407H8.73824" fill="black"/>
<path fill-rule="evenodd" clip-rule="evenodd" d="M0 37.6378C0 40.7447 2.57913 43.2461 5.56476 43.2461C6.78891 43.2461 8.01306 42.9387 8.82605 42.3285V42.9992H11.5454L11.5454 32.2112H8.82605V33.0636C7.87757 32.3975 6.78891 32.09 5.56476 32.09C2.57913 32.09 0 34.5309 0 37.6378ZM5.70025 40.7448C4.07428 40.7448 2.57913 39.3427 2.57913 37.6379C2.57913 35.9936 4.07428 34.5309 5.70025 34.5309C7.47107 34.5309 8.82605 35.9936 8.82605 37.6379C8.82605 39.3427 7.47107 40.7448 5.70025 40.7448Z" fill="black"/>
<path d="M41.9533 28.2395L28.8479 5.50219L38.2672 2.86102e-05L54.6501 28.2395" fill="black"/>
<path fill-rule="evenodd" clip-rule="evenodd" d="M12.5333 37.6163C12.5333 40.7348 14.977 43.2456 18.1028 43.2456C19.3222 43.2456 20.4109 42.937 21.364 42.3245V42.9978H24.0787V28.4382H21.364V33.0249C20.4109 32.3563 19.3222 32.0477 18.1028 32.0477C14.977 32.0477 12.5333 34.4977 12.5333 37.6163ZM18.2382 40.7348C16.4721 40.7348 15.1124 39.3274 15.1124 37.6162C15.1124 35.9657 16.4721 34.4976 18.2382 34.4976C19.8642 34.4976 21.364 35.9657 21.364 37.6162C21.364 39.3274 19.8642 40.7348 18.2382 40.7348Z" fill="black"/>
<path d="M17.964 15.4017L27.5006 10.0148L37.9932 28.3235L28.0442 28.3235V31.0193H25.3215V28.3235" fill="black"/>
<path fill-rule="evenodd" clip-rule="evenodd" d="M60.8784 29.7704C60.8784 30.5044 61.5558 31.1169 62.238 31.1169C63.0509 31.1169 63.5976 30.5044 63.5976 29.7704C63.5976 29.0363 63.0509 28.4238 62.238 28.4238C61.5558 28.4238 60.8784 29.0363 60.8784 29.7704ZM61.1493 29.7705C61.1493 29.158 61.5558 28.6109 62.2379 28.6109C62.9154 28.6109 63.3219 29.158 63.3219 29.7705C63.3219 30.383 62.9154 30.9347 62.2379 30.9347C61.5558 30.9347 61.1493 30.383 61.1493 29.7705Z" fill="black"/>
<path fill-rule="evenodd" clip-rule="evenodd" d="M62.2473 29.8968L62.5182 30.5093H62.7892L62.5182 29.8968C62.6537 29.836 62.7892 29.7144 62.7892 29.4713C62.7892 29.2282 62.5182 29.0412 62.3827 29.0412H61.7707V30.5093H61.9763V29.8968H62.2473ZM61.9763 29.2282H62.2473C62.5183 29.2282 62.5183 29.3451 62.5183 29.4713C62.5183 29.6537 62.5183 29.7145 62.2473 29.7145H61.9763V29.2282Z" fill="black"/>
<path fill-rule="evenodd" clip-rule="evenodd" d="M41.7178 37.616C41.7178 40.7346 44.1613 43.2454 47.2823 43.2454C48.5064 43.2454 49.5951 42.9368 50.5435 42.3243V42.9976H53.1272V32.169H50.5435V33.0246C49.5951 32.356 48.5064 32.0474 47.2823 32.0474C44.1613 32.0474 41.7178 34.4974 41.7178 37.616ZM47.4225 40.7348C45.6564 40.7348 44.2968 39.3274 44.2968 37.6162C44.2968 35.9657 45.6564 34.4976 47.4225 34.4976C49.0531 34.4976 50.5435 35.9657 50.5435 37.6162C50.5435 39.3274 49.0531 40.7348 47.4225 40.7348Z" fill="black"/>
<path fill-rule="evenodd" clip-rule="evenodd" d="M40.7739 28.4377H38.0594V33.0244C37.2418 32.3558 36.1532 32.0472 34.9337 32.0472C31.808 32.0472 29.229 34.4972 29.229 37.6158C29.229 40.7344 31.808 43.2451 34.9337 43.2451C36.1532 43.2451 37.2418 42.9365 38.0594 42.324V42.9973H40.7739V28.4377ZM34.9338 40.7348C33.3032 40.7348 31.8081 39.3274 31.8081 37.6162C31.8081 35.9657 33.3032 34.4976 34.9338 34.4976C36.6998 34.4976 38.0594 35.9657 38.0594 37.6162C38.0594 39.3274 36.6998 40.7348 34.9338 40.7348Z" fill="black"/>
<rect x="25.391" y="33.1558" width="2.61512" height="9.83284" fill="black" stroke="black"/>
</svg>
