<svg width="100" height="37" viewBox="0 0 100 37" fill="none" xmlns="http://www.w3.org/2000/svg">
<rect width="98.6047" height="34.3256" fill="black"/>
<rect x="1.89536" y="2.21631" width="97.6047" height="33.3256" stroke="black"/>
<path d="M25.5229 21V14.5576H27.1182L28.0762 18.9521L29.0254 14.5576H30.625V21H29.6362V15.9287L28.5859 21H27.5576L26.5161 15.9287V21H25.5229ZM34.2579 21V14.5576H38.1778V15.6475H35.3213V17.0757H37.9756V18.1611H35.3213V19.9146H38.2745V21H34.2579ZM41.7535 21V14.5576H42.7906L44.9528 18.8599V14.5576H45.9459V21H44.8737L42.7467 16.7988V21H41.7535Z" fill="white"/>
<rect x="66" y="22.0605" width="7.77559" height="2" transform="rotate(-45 66 22.0605)" fill="white"/>
<rect x="67.4375" y="11" width="8.7955" height="2" transform="rotate(45 67.4375 11)" fill="white"/>
<rect x="57" y="17" width="14" height="1" fill="white" stroke="white"/>
</svg>
