<svg width="100" height="37" viewBox="0 0 100 37" fill="none" xmlns="http://www.w3.org/2000/svg">
<rect width="98.6047" height="34.3256" fill="black"/>
<rect x="1.89536" y="2.21631" width="97.6047" height="33.3256" stroke="black"/>
<path d="M17.2832 21L16.022 14.5576H17.1162L17.9072 18.9829L18.874 14.5576H20.144L21.0713 19.0576L21.8843 14.5576H22.9565L21.6733 21H20.5396L19.4849 16.1836L18.439 21H17.2832ZM25.8599 17.8184C25.8599 17.0508 25.9727 16.4194 26.1983 15.9243C26.4268 15.4263 26.7242 15.0557 27.0904 14.8125C27.4566 14.5693 27.9004 14.4478 28.4219 14.4478C29.1778 14.4478 29.793 14.7363 30.2676 15.3135C30.7452 15.8906 30.9839 16.7124 30.9839 17.7788C30.9839 18.8569 30.732 19.6992 30.2281 20.3057C29.7857 20.8418 29.1851 21.1099 28.4263 21.1099C27.6617 21.1099 27.0582 20.8447 26.6158 20.3145C26.1119 19.708 25.8599 18.876 25.8599 17.8184ZM26.9586 17.7744C26.9586 18.5156 27.0992 19.0723 27.3804 19.4443C27.6617 19.8135 28.0103 19.998 28.4263 19.998C28.8453 19.998 29.1924 19.8149 29.4678 19.4487C29.7432 19.0796 29.8809 18.5142 29.8809 17.7524C29.8809 17.0054 29.7462 16.4531 29.4766 16.0957C29.21 15.7383 28.8599 15.5596 28.4263 15.5596C27.9927 15.5596 27.6397 15.7397 27.3672 16.1001C27.0948 16.4604 26.9586 17.0186 26.9586 17.7744ZM34.3707 21V14.5576H35.9659L36.9239 18.9521L37.8732 14.5576H39.4728V21H38.484V15.9287L37.4337 21H36.4054L35.3639 15.9287V21H34.3707ZM43.1056 21V14.5576H47.0256V15.6475H44.1691V17.0757H46.8234V18.1611H44.1691V19.9146H47.1222V21H43.1056ZM50.6013 21V14.5576H51.6384L53.8005 18.8599V14.5576H54.7937V21H53.7214L51.5945 16.7988V21H50.6013Z" fill="white"/>
<rect x="75" y="22.0605" width="7.77559" height="2" transform="rotate(-45 75 22.0605)" fill="white"/>
<rect x="76.4375" y="11" width="8.7955" height="2" transform="rotate(45 76.4375 11)" fill="white"/>
<rect x="66" y="17" width="14" height="1" fill="white" stroke="white"/>
</svg>
