<svg width="104" height="34" viewBox="0 0 104 34" fill="none" xmlns="http://www.w3.org/2000/svg">
<rect x="1.31665" y="2.80994" width="102.183" height="29.801" stroke="white"/>
<rect width="101.643" height="30.801" fill="white"/>
<path d="M9.26807 16.9038L10.3096 16.7808C10.4268 17.604 10.8105 18.0156 11.4609 18.0156C11.7832 18.0156 12.0366 17.9321 12.2212 17.7651C12.4058 17.5952 12.498 17.3857 12.498 17.1367C12.498 16.9902 12.4658 16.8657 12.4014 16.7632C12.3369 16.6606 12.2388 16.5771 12.1069 16.5127C11.9751 16.4453 11.6558 16.334 11.1489 16.1787C10.6948 16.041 10.3623 15.8916 10.1514 15.7305C9.94043 15.5693 9.77197 15.3584 9.646 15.0977C9.52295 14.834 9.46143 14.5513 9.46143 14.2495C9.46143 13.8979 9.54053 13.5815 9.69873 13.3003C9.85986 13.019 10.0811 12.8066 10.3623 12.6631C10.6436 12.5195 10.9907 12.4478 11.4038 12.4478C12.0249 12.4478 12.5098 12.6162 12.8584 12.9531C13.207 13.29 13.3916 13.772 13.4121 14.3989L12.3442 14.4561C12.2974 14.1104 12.1963 13.8687 12.041 13.731C11.8857 13.5933 11.6646 13.5244 11.3774 13.5244C11.0903 13.5244 10.8691 13.5845 10.7139 13.7046C10.5586 13.8247 10.481 13.9741 10.481 14.1528C10.481 14.3286 10.5513 14.4766 10.6919 14.5967C10.8325 14.7168 11.1562 14.8486 11.6631 14.9922C12.1992 15.1475 12.5859 15.3115 12.8232 15.4844C13.0635 15.6543 13.2466 15.8755 13.3726 16.1479C13.4985 16.4175 13.5615 16.7456 13.5615 17.1323C13.5615 17.6919 13.3887 18.1621 13.043 18.543C12.7002 18.9238 12.1626 19.1143 11.4302 19.1143C10.1353 19.1143 9.41455 18.3774 9.26807 16.9038ZM17.0274 19V12.5576H18.0909V15.0933H20.1827V12.5576H21.2505V19H20.1827V16.1831H18.0909V19H17.0274ZM24.7032 15.8184C24.7032 15.0508 24.816 14.4194 25.0416 13.9243C25.2701 13.4263 25.5675 13.0557 25.9337 12.8125C26.2999 12.5693 26.7438 12.4478 27.2653 12.4478C28.0211 12.4478 28.6363 12.7363 29.111 13.3135C29.5885 13.8906 29.8273 14.7124 29.8273 15.7788C29.8273 16.8569 29.5753 17.6992 29.0714 18.3057C28.629 18.8418 28.0284 19.1099 27.2696 19.1099C26.505 19.1099 25.9015 18.8447 25.4591 18.3145C24.9552 17.708 24.7032 16.876 24.7032 15.8184ZM25.8019 15.7744C25.8019 16.5156 25.9425 17.0723 26.2238 17.4443C26.505 17.8135 26.8536 17.998 27.2696 17.998C27.6886 17.998 28.0358 17.8149 28.3112 17.4487C28.5865 17.0796 28.7242 16.5142 28.7242 15.7524C28.7242 15.0054 28.5895 14.4531 28.3199 14.0957C28.0533 13.7383 27.7032 13.5596 27.2696 13.5596C26.8361 13.5596 26.483 13.7397 26.2106 14.1001C25.9381 14.4604 25.8019 15.0186 25.8019 15.7744ZM33.2272 19V12.5576H34.9411C35.5798 12.5576 35.9972 12.5884 36.1935 12.6499C36.507 12.7495 36.7648 12.9619 36.967 13.2871C37.1721 13.6123 37.2746 14.0312 37.2746 14.5439C37.2746 15.0098 37.1867 15.4009 37.0109 15.7173C36.8351 16.0308 36.6154 16.252 36.3517 16.3809C36.0881 16.5068 35.634 16.5698 34.9894 16.5698H34.2907V19H33.2272ZM34.2907 13.6475V15.4756H34.8796C35.2751 15.4756 35.5431 15.4478 35.6838 15.3921C35.8273 15.3364 35.9445 15.2368 36.0353 15.0933C36.1262 14.9468 36.1716 14.7681 36.1716 14.5571C36.1716 14.3433 36.1247 14.1631 36.0309 14.0166C35.9372 13.8701 35.8215 13.772 35.6838 13.7222C35.5461 13.6724 35.2546 13.6475 34.8093 13.6475H34.2907ZM45.2171 19V12.5576H46.2542L48.4163 16.8599V12.5576H49.4095V19H48.3372L46.2103 14.7988V19H45.2171ZM52.8841 15.8184C52.8841 15.0508 52.9969 14.4194 53.2225 13.9243C53.451 13.4263 53.7484 13.0557 54.1146 12.8125C54.4808 12.5693 54.9247 12.4478 55.4462 12.4478C56.202 12.4478 56.8172 12.7363 57.2919 13.3135C57.7694 13.8906 58.0082 14.7124 58.0082 15.7788C58.0082 16.8569 57.7562 17.6992 57.2523 18.3057C56.8099 18.8418 56.2093 19.1099 55.4505 19.1099C54.6859 19.1099 54.0824 18.8447 53.64 18.3145C53.1361 17.708 52.8841 16.876 52.8841 15.8184ZM53.9828 15.7744C53.9828 16.5156 54.1234 17.0723 54.4046 17.4443C54.6859 17.8135 55.0345 17.998 55.4505 17.998C55.8695 17.998 56.2167 17.8149 56.4921 17.4487C56.7674 17.0796 56.9051 16.5142 56.9051 15.7524C56.9051 15.0054 56.7704 14.4531 56.5008 14.0957C56.2342 13.7383 55.8841 13.5596 55.4505 13.5596C55.017 13.5596 54.6639 13.7397 54.3915 14.1001C54.119 14.4604 53.9828 15.0186 53.9828 15.7744ZM62.1552 19L60.894 12.5576H61.9882L62.7792 16.9829L63.746 12.5576H65.016L65.9433 17.0576L66.7563 12.5576H67.8285L66.5453 19H65.4115L64.3569 14.1836L63.311 19H62.1552Z" fill="black"/>
<rect x="85" y="20.0607" width="7.77559" height="2" transform="rotate(-45 85 20.0607)" fill="black"/>
<rect x="86.4375" y="9" width="8.7955" height="2" transform="rotate(45 86.4375 9)" fill="black"/>
<rect x="76" y="15" width="14" height="1" fill="black" stroke="black"/>
</svg>
