<svg width="11" height="17" viewBox="0 0 11 17" fill="none" xmlns="http://www.w3.org/2000/svg">
<path d="M8.22168 12.0297C8.66673 13.0098 8.90112 14.1248 8.90081 15.2601C8.90081 15.4582 8.96196 15.6483 9.07082 15.7884C9.17967 15.9285 9.32731 16.0072 9.48126 16.0072C9.6352 16.0072 9.78284 15.9285 9.8917 15.7884C10.0006 15.6483 10.0617 15.4582 10.0617 15.2601C10.0617 13.674 9.69196 12.1499 9.0256 10.8679C9.46169 10.0064 9.69084 8.9986 9.68444 7.97041C9.67804 6.94223 9.43637 5.93927 8.98962 5.08687C8.15261 3.49032 5.41057 2.08279 0.764648 0.863525C0.920209 5.98189 1.41591 9.33935 2.25234 10.9359C2.57006 11.5422 2.98306 12.056 3.46466 12.4442C3.94625 12.8323 4.48574 13.0861 5.04828 13.1891C5.61082 13.2922 6.1839 13.2423 6.73052 13.0426C7.27713 12.8428 7.78512 12.4978 8.22168 12.0297ZM7.52166 10.8343C7.2113 11.1804 6.84741 11.4378 6.45403 11.5895C6.06066 11.7411 5.64675 11.7836 5.23967 11.7141C4.83258 11.6447 4.44159 11.4648 4.09253 11.1864C3.74346 10.908 3.44427 10.5374 3.21473 10.0992C2.63195 8.98747 2.20648 6.50187 2.00507 2.74024C5.45468 3.77646 7.49786 4.91354 8.02723 5.92287C8.3113 6.46454 8.47995 7.09269 8.51631 7.74454C8.55268 8.39638 8.45549 9.0491 8.23445 9.63745C7.98486 9.32142 7.71379 9.03155 7.42182 8.77081L7.12695 8.50783C7.00041 8.39499 6.84422 8.35147 6.69275 8.38685C6.54128 8.42223 6.40693 8.5336 6.31926 8.69648C6.23159 8.85935 6.19778 9.06038 6.22526 9.25534C6.25275 9.4503 6.33928 9.62322 6.46582 9.73606L6.76011 9.99904C7.03516 10.244 7.29031 10.5241 7.52166 10.835V10.8343Z" fill="#78CF8F"/>
</svg>
